<svg xmlns="http://www.w3.org/2000/svg" width="926" height="411">
  <linearGradient id="a" x1="411.693" x2="257.444" y1="168.526" y2="-318.307" gradientUnits="userSpaceOnUse">
    <stop offset="0" stop-color="#fff"/>
    <stop offset="1" stop-color="#979797"/>
  </linearGradient>
  <path fill="url(#a)" d="M-58.1-60.3H-60v.8l1.9-.8Zm56.4 409 .4.1L826.1.1 864-60.3h-1.8l-9.4 15-.9 1.5-9 14.4-.9 1.5-8.4 13.5-.9 1.5-8 12.6-39 16.4-2.3 1-39.1 16.5-2.3 1-39.1 16.5-2.2 1-39.2 16.5-2.2.9L620 85.9l-2.1.9-39.3 16.5-2.1.9-39.3 16.6-2.1.9-39.3 16.6-2 .9-39.4 16.5-2 .9-39.3 16.6-2 .8-39.3 16.6-2 .9-39.3 16.6-2 .9-39.3 16.6-2.1.9-39.3 16.6-2.1.9-39.3 16.5-2.1.9-39.4 16.3-2.2.9-39.2 16.5-2.2 1-39.1 16.5-2.3 1-39.1 16.5-2.4 1-39 16.4-14.5-3.2-1.7-.4-15.5-3.4-1.7-.4-16.6-3.6-1.7-.4-7.7-1.6v1.6l58.3 12.6Z"/>
  <linearGradient id="b" x1="-13.804" x2="-168.053" y1="303.341" y2="-183.492" gradientUnits="userSpaceOnUse">
    <stop offset="0" stop-color="#fff"/>
    <stop offset="1" stop-color="#979797"/>
  </linearGradient>
  <path fill="url(#b)" d="m-46.8 307.9-13.2-3.6v-1.6l15.6 4.2 1.6.5 17.7 4.8 1.6.4L-7 317l1.5.5 15.4 4.1 1.6.4 14.3 3.9 1.6.5 13.4 3.6.4.1-1.6 1.2-1.2-.3-13.4-3.7-1.6-.4L9.1 323l-1.6-.4-15.3-4.1-1.6-.5-16.5-4.4-1.6-.5-17.7-4.8Z"/>
  <linearGradient id="c" x1="12.887" x2="-141.362" y1="294.884" y2="-191.948" gradientUnits="userSpaceOnUse">
    <stop offset="0" stop-color="#fff"/>
    <stop offset="1" stop-color="#979797"/>
  </linearGradient>
  <path fill="url(#c)" d="m-59.5 267-.5-.1v-1.8l2.8 1 1.5.4 20.4 6.9 1.5.5 18.9 6.3 1.5.5 17.5 5.8 1.4.5 16.3 5.4 1.4.5 15.1 5 1.5.5 14 4.7 1.5.5 13.1 4.4 1.5.5 12.2 4 .4.2-1.6 1.2-1-.4-12.3-4.1-1.5-.5-13.1-4.4-1.5-.4-14-4.7-1.5-.5-15.1-5-1.4-.5-16.3-5.5-1.4-.4-17.5-5.9-1.5-.5-18.9-6.3-1.5-.5-20.4-6.8Z"/>
  <linearGradient id="d" x1="40.656" x2="-113.593" y1="286.086" y2="-200.747" gradientUnits="userSpaceOnUse">
    <stop offset="0" stop-color="#fff"/>
    <stop offset="1" stop-color="#979797"/>
  </linearGradient>
  <path fill="url(#d)" d="m-50.2 225.9-9.8-4.1V220l12 4.9 1.4.6 22 9 1.3.5 20.2 8.3 1.3.5 18.6 7.6 1.3.6 17.2 7 1.3.5 15.9 6.6 1.4.5 14.7 6.1 1.3.5 13.8 5.6 1.3.6 12.8 5.2 1.3.5L111 290l1.3.6 11.2 4.5.4.2-1.7 1.2-1-.4-11.1-4.6-1.3-.5-11.9-4.9-1.4-.6-12.8-5.2-1.3-.6-13.7-5.6-1.3-.5-14.8-6.1-1.3-.5-15.9-6.5-1.3-.5-17.2-7.1-1.3-.5-18.7-7.6-1.3-.6-20.2-8.3-1.3-.5-22-9Z"/>
  <linearGradient id="e" x1="69.876" x2="-84.374" y1="276.828" y2="-210.005" gradientUnits="userSpaceOnUse">
    <stop offset="0" stop-color="#fff"/>
    <stop offset="1" stop-color="#979797"/>
  </linearGradient>
  <path fill="url(#e)" d="M-39.3 177.2-60 166.8v-2l22.9 11.5 1.2.6 23.7 11.9 1.2.6 21.6 10.8 1.2.6 19.8 10 1.2.6 18.1 9.1 1.2.6 16.8 8.4 1.2.6 15.4 7.8 1.2.6 14.3 7.1 1.2.6 13.3 6.7 1.2.6 12.3 6.2 1.2.6 11.5 5.8 1.2.6 10.7 5.4 1.2.6 10.1 5 .3.2-1.7 1.1-.8-.4-10.1-5-1.2-.6-10.7-5.4-1.2-.6-11.5-5.8-1.2-.6-12.3-6.2-1.2-.6-13.3-6.6-1.2-.6-14.3-7.2-1.2-.6-15.4-7.8-1.2-.6-16.8-8.4-1.1-.6-18.2-9.1-1.2-.6-19.8-10-1.2-.5-21.6-10.9-1.2-.6-23.7-11.9Z"/>
  <linearGradient id="f" x1="101.083" x2="-53.166" y1="266.94" y2="-219.893" gradientUnits="userSpaceOnUse">
    <stop offset="0" stop-color="#fff"/>
    <stop offset="1" stop-color="#979797"/>
  </linearGradient>
  <path fill="url(#f)" d="m-55.6 100.7-4.4-2.8v-2.2l6.6 4.1 1 .6 28.4 17.5 1 .7 25.6 15.8 1.1.7 23.1 14.3 1.1.6 21 13 1.1.7 19.2 11.9 1 .6 17.6 10.9 1.1.6 16.1 10 1.1.7 14.8 9.2 1.1.6 13.7 8.5 1.1.7 12.7 7.8 1.1.7 11.8 7.3 1 .6 11 6.8 1 .6 10.3 6.4 1 .6 9.5 5.9 1.1.6 8.9 5.6.4.2-1.8 1.1-.7-.4-8.9-5.5-1.1-.7-9.5-5.9-1.1-.6-10.2-6.4-1.1-.6-10.9-6.8-1.1-.7-11.8-7.2-1-.7-12.7-7.9-1.1-.6-13.7-8.5-1.1-.6-14.9-9.2-1-.7-16.2-10-1-.6-17.6-10.9-1.1-.6-19.2-11.9-1-.7-21.1-13-1-.6-23.2-14.4-1-.6-25.6-15.8-1-.7-28.4-17.5Z"/>
  <linearGradient id="g" x1="135.134" x2="-19.115" y1="256.151" y2="-230.681" gradientUnits="userSpaceOnUse">
    <stop offset="0" stop-color="#fff"/>
    <stop offset="1" stop-color="#979797"/>
  </linearGradient>
  <path fill="url(#g)" d="M-42.1 23-60 9.3V6.8l20 15.3.9.7 31 23.8 1 .8 27.6 21.2 1 .7 24.8 19 .9.7 22.3 17.2 1 .7 20.2 15.5.9.8 18.4 14.1.9.7 16.8 12.9 1 .7 15.3 11.8 1 .7 14.1 10.8.9.7 13 10 .9.7 12 9.2 1 .7 11.1 8.6.9.7 10.3 7.9.9.7 9.6 7.4 1 .7 8.9 6.8.9.7 8.4 6.4.9.8 7.8 5.9.3.3-1.8 1.1-.6-.5-7.8-6-.9-.7-8.4-6.4-.9-.7-8.9-6.8-1-.7-9.5-7.4-1-.7-10.3-7.9-.9-.7-11.1-8.6-.9-.7-12.1-9.2-.9-.7-13-10-.9-.7-14.1-10.8-1-.7-15.3-11.8-1-.8-16.7-12.8-1-.7L89.5 124l-.9-.7-20.2-15.5-1-.7-22.3-17.2-.9-.7-24.8-19-1-.7-27.6-21.3-.9-.7-31.1-23.8Z"/>
  <linearGradient id="h" x1="189.379" x2="35.13" y1="238.964" y2="-247.869" gradientUnits="userSpaceOnUse">
    <stop offset="0" stop-color="#fff"/>
    <stop offset="1" stop-color="#979797"/>
  </linearGradient>
  <path fill="url(#h)" d="M9.8-41.6-9.5-60.3h3l18.4 17.8.8.8 30 29 .8.8L70 13.7l.8.8 23.7 22.9.8.8 21.2 20.5.8.8L136.5 78l.8.7 17.3 16.8.8.8 15.8 15.2.7.8 14.4 13.9.8.7 13.2 12.8.8.7 12.1 11.7.7.8 11.2 10.8.8.7 10.3 10 .7.7 9.6 9.2.8.8 8.8 8.6.8.7 8.2 8 .8.7 7.6 7.4.8.8 7.2 6.9.8.7 6.6 6.5.3.3-1.9 1-.4-.4-6.7-6.5-.8-.7-7.1-6.9-.8-.8-7.7-7.4-.8-.8-8.2-7.9-.8-.8-8.8-8.5-.8-.8-9.5-9.2-.8-.8-10.3-9.9-.8-.8-11.1-10.7-.8-.8-12.1-11.7-.8-.7-13.2-12.8-.8-.7-14.3-14-.8-.7-15.8-15.2-.8-.8-17.3-16.8-.8-.7-19.1-18.5-.8-.8-21.3-20.5-.8-.8-23.6-22.9-.8-.8-26.6-25.7-.8-.7-30-29Z"/>
  <linearGradient id="i" x1="266.055" x2="111.806" y1="214.67" y2="-272.163" gradientUnits="userSpaceOnUse">
    <stop offset="0" stop-color="#fff"/>
    <stop offset=".931" stop-color="#9e9e9e"/>
    <stop offset="1" stop-color="#979797"/>
  </linearGradient>
  <path fill="url(#i)" d="m123.3-46.7-10.9-13.6h2.7l10.3 12.8.6.8 22.1 27.5.7.9 19.7 24.5.7.9 17.6 22 .7.8 15.9 19.9.7.8 14.4 18 .7.8 13.1 16.3.6.9 12 14.9.7.8 10.9 13.7.7.8 10 12.5.7.9 9.3 11.5.6.8 8.6 10.7.6.8 8 9.9.6.8 7.4 9.2.6.8 6.9 8.5.6.9 6.4 7.9.7.8 5.9 7.4.7.9 5.5 6.9.3.3-2 1-.3-.5-5.6-6.9-.6-.8-6-7.4-.7-.8-6.3-8-.7-.8-6.8-8.5-.7-.9-7.3-9.1-.7-.8-7.9-9.9-.7-.8-8.5-10.7-.7-.8-9.2-11.6-.7-.8-10.1-12.5-.6-.9-11-13.6-.6-.8-12-15-.7-.8-13.1-16.3-.6-.8-14.5-18-.6-.9-16-19.8-.6-.9-17.7-22-.7-.8-19.7-24.6-.6-.8L124-45.9Z"/>
  <linearGradient id="j" x1="335.663" x2="181.413" y1="192.615" y2="-294.217" gradientUnits="userSpaceOnUse">
    <stop offset="0" stop-color="#fff"/>
    <stop offset="1" stop-color="#979797"/>
  </linearGradient>
  <path fill="url(#j)" d="m224.2-51.2-5.5-9.1h2.6l4.9 8.2.5.9 15.8 26.3.5.8L257.1-.5l.5.9 12.8 21.2.5.8 11.5 19.3.5.8L293.4 60l.5.9 9.6 15.9.5.9 8.8 14.6.5.9 8 13.4.6.8 7.3 12.4.6.8 6.8 11.4.5.9 6.4 10.6.5.8 5.9 9.8.5.9 5.4 9.1.6.9 5 8.5.6.9 4.7 7.9.5.8 4.5 7.4.2.4-2 1-.2-.5-4.5-7.4-.5-.9-4.8-7.9-.5-.9-5.1-8.4-.5-.9-5.4-9.1-.6-.9-5.9-9.8-.5-.9-6.3-10.5-.5-.9-6.9-11.4-.5-.9-7.4-12.3-.5-.9-8.1-13.4-.5-.9-8.7-14.6-.6-.8-9.5-16-.5-.8-10.5-17.5-.5-.9-11.5-19.2-.6-.9-12.7-21.2-.5-.9L241-23.2l-.6-.9-15.7-26.2Z"/>
  <linearGradient id="k" x1="399.47" x2="245.221" y1="172.398" y2="-314.434" gradientUnits="userSpaceOnUse">
    <stop offset="0" stop-color="#fff"/>
    <stop offset="1" stop-color="#979797"/>
  </linearGradient>
  <path fill="url(#k)" d="m314.4-55.3-2.1-5h2.4l1.8 4.2.4.9 10.5 25.1.4.9 9.5 22.6.4.9 8.6 20.4.4 1 7.8 18.5.4 1 7.2 16.9.4.9 6.5 15.6.4.9 6 14.3.4.9 5.5 13.1.4.9 5.1 12.2.4.9L392 123l.4 1 4.4 10.4.3.9 4.1 9.7.4.9 3.8 9 .4 1 3.6 8.4.4.9 3.3 7.9.2.5-2.1.8-.2-.5-3.3-7.8-.4-.9-3.5-8.5-.4-.9-3.8-9-.4-.9-4.1-9.7-.4-1-4.4-10.4-.4-.9-4.7-11.2-.4-1-5.1-12.1-.4-.9-5.5-13.2-.4-.9-6-14.2-.4-1-6.6-15.5-.3-.9-7.2-17-.4-.9-7.8-18.6-.4-.9-8.6-20.5-.4-.9-9.5-22.6-.4-.9-10.6-25Z"/>
  <linearGradient id="l" x1="458.437" x2="304.188" y1="153.715" y2="-333.118" gradientUnits="userSpaceOnUse">
    <stop offset="0" stop-color="#fff"/>
    <stop offset="1" stop-color="#979797"/>
  </linearGradient>
  <path fill="url(#l)" d="m395.7-58.9-.4-1.4h2.3l.1.5.3 1 6.3 23.9.2 1 5.7 21.7.3 1 5.2 19.7.2 1 4.8 17.9.2 1 4.4 16.5.2 1 4 15.1.3.9 3.6 14 .3 1 3.4 12.8.2 1 3.2 11.9.2 1 2.9 11 .3 1 2.7 10.3.3 1 2.5 9.5.2 1 2.4 8.9.2 1 2.2 8.4.2.5-2.1.8-.1-.5-2.2-8.3-.3-1-2.3-8.9-.3-1-2.5-9.6-.2-1-2.7-10.2-.3-1-2.9-11.1-.3-.9-3.1-11.9-.3-1-3.3-12.9-.3-1-3.7-13.9-.2-1-4-15.1-.3-1-4.3-16.4-.3-1-4.7-18-.3-1-5.1-19.7-.3-.9-5.7-21.7-.3-1-6.3-23.9Z"/>
  <linearGradient id="m" x1="513.345" x2="359.096" y1="136.318" y2="-350.515" gradientUnits="userSpaceOnUse">
    <stop offset="0" stop-color="#fff"/>
    <stop offset="1" stop-color="#979797"/>
  </linearGradient>
  <path fill="url(#m)" d="M469.4-60.3h2.2l2.6 21.2.1 1 2.5 20.8.2 1 2.3 19 .1 1.1 2.1 17.4.2 1 1.9 16 .1 1 1.8 14.7.2 1 1.6 13.6.1 1.1 1.6 12.6.1 1 1.4 11.7.2 1 1.3 10.8.1 1.1 1.2 10.1.2 1 1.1 9.5.2 1 1 8.8.1.6-2.1.7v-.4l-1.1-8.8-.1-1.1-1.2-9.4-.1-1.1-1.2-10-.2-1.1-1.3-10.8-.1-1.1-1.4-11.6-.2-1.1-1.5-12.6-.1-1-1.7-13.6-.1-1-1.8-14.7-.1-1.1-2-15.9-.1-1.1-2.1-17.4-.2-1-2.3-19-.1-1-2.6-20.8-.1-1.1Z"/>
  <linearGradient id="n" x1="564.833" x2="410.584" y1="120.004" y2="-366.828" gradientUnits="userSpaceOnUse">
    <stop offset="0" stop-color="#fff"/>
    <stop offset="1" stop-color="#979797"/>
  </linearGradient>
  <path fill="url(#n)" d="M535.2 122.1v-10.8l.1-10V88.5l.1-11.4V62.6l.1-13.3v-1.1l.1-14.3V16.2l.1-16.8v-1.1l.1-18.3v-1.1l.1-20v-1.1l.1-18.1h2.1l-.1 17.2v1.1l-.1 20v1.1l-.1 18.4v1.1l-.1 16.8v1.1l-.1 15.4v16.6l-.1 13.2v1.1l-.1 12.3v13.6l-.1 10.7v12.1l-.1 9.3v.6Z"/>
  <linearGradient id="o" x1="613.407" x2="459.158" y1="104.614" y2="-382.219" gradientUnits="userSpaceOnUse">
    <stop offset="0" stop-color="#fff"/>
    <stop offset="1" stop-color="#979797"/>
  </linearGradient>
  <path fill="url(#o)" d="M576.5 104.6v-.4l1.2-9.7.1-1.2 1.3-10.4.1-1.2 1.3-11.2.2-1.1 1.4-12 .1-1.2 1.6-12.9.1-1.2 1.7-13.9.1-1.1 1.8-15.1.1-1.1 2-16.3.1-1.1 2.1-17.7.2-1.2 2.3-19.2.1-1.2 1.7-14.5h2l-1.6 13.6-.2 1.2-2.2 19.2-.2 1.2-2.1 17.7-.1 1.1-2 16.3-.1 1.2-1.8 15-.1 1.1-1.7 14-.1 1.1-1.6 12.9-.1 1.2-1.4 12-.2 1.1-1.3 11.2-.1 1.2-1.3 10.4-.1 1.2-1.2 9.7-.1.8Z"/>
  <linearGradient id="p" x1="659.466" x2="505.217" y1="90.021" y2="-396.812" gradientUnits="userSpaceOnUse">
    <stop offset="0" stop-color="#fff"/>
    <stop offset="1" stop-color="#979797"/>
  </linearGradient>
  <path fill="url(#p)" d="m617.8 87.2.1-.4 2.3-10.2.2-1.2 2.5-11 .3-1.2 2.6-11.7.2-1.2v-.1l2.8-12.5.3-1.2 3-13.6.3-1.2 3.3-14.6.2-1.2 3.5-15.7.3-1.3 3.8-17 .3-1.2 4.1-18.6.3-1.2 2.5-11.2h1.9L650.3-50l-.2 1.2-4.2 18.6-.2 1.2-3.9 17-.2 1.2L638.1 5l-.3 1.2-3.3 14.6-.2 1.2-3.1 13.6-.2 1.2-2.8 12.6-.3 1.2-2.6 11.7-.3 1.2-2.4 11-.3 1.2-2.3 10.2-.2.8Z"/>
  <linearGradient id="q" x1="703.348" x2="549.099" y1="76.117" y2="-410.716" gradientUnits="userSpaceOnUse">
    <stop offset="0" stop-color="#fff"/>
    <stop offset="1" stop-color="#979797"/>
  </linearGradient>
  <path fill="url(#q)" d="m659.1 69.8.2-.4 3.4-10.7.4-1.3 3.6-11.5.4-1.2 3.9-12.3.4-1.3 4.2-13.1.4-1.3 4.5-14.2.4-1.2 4.8-15.3.4-1.3 5.3-16.4.4-1.3 5.7-17.9.4-1.2 2.6-8.2h1.8L700-53l-.4 1.2-5.6 17.9-.4 1.2-5.3 16.5-.4 1.3L683.1.4l-.4 1.2-4.5 14.2-.4 1.3-4.2 13.1-.4 1.3-3.9 12.3-.4 1.2-3.7 11.5-.4 1.2-3.4 10.7-.2.9Z"/>
  <linearGradient id="r" x1="745.324" x2="591.075" y1="62.817" y2="-424.015" gradientUnits="userSpaceOnUse">
    <stop offset="0" stop-color="#fff"/>
    <stop offset="1" stop-color="#979797"/>
  </linearGradient>
  <path fill="url(#r)" d="m700.4 52.3.2-.4 4.5-11.1.6-1.4 4.8-11.9.5-1.3 5.2-12.8.5-1.4 5.6-13.7.5-1.3 6-14.8.6-1.3 6.4-16 .5-1.3 7-17.2.5-1.3 2.2-5.4h1.9l-1.8 4.4-.5 1.3-7 17.3-.6 1.3-6.4 15.9-.5 1.3-6 14.8-.6 1.3-5.5 13.8-.5 1.3-5.2 12.8-.6 1.3-4.8 12-.5 1.3-4.6 11.2-.3.9Z"/>
  <linearGradient id="s" x1="785.621" x2="631.372" y1="50.049" y2="-436.783" gradientUnits="userSpaceOnUse">
    <stop offset="0" stop-color="#fff"/>
    <stop offset="1" stop-color="#979797"/>
  </linearGradient>
  <path fill="url(#s)" d="m741.8 34.9.2-.4 5.6-11.6.7-1.4 6-12.5.7-1.3 6.4-13.4.7-1.4 6.9-14.3.7-1.4 7.5-15.4.6-1.4 8.1-16.6.6-1.4 1.4-2.7h1.8l-.9 1.8-.6 1.4-8.1 16.6-.6 1.3-7.5 15.4-.7 1.4-6.9 14.3-.7 1.4-6.4 13.4-.7 1.4-6 12.4-.7 1.4-5.6 11.6-.5 1Z"/>
  <linearGradient id="t" x1="824.447" x2="670.197" y1="37.748" y2="-449.085" gradientUnits="userSpaceOnUse">
    <stop offset="0" stop-color="#fff"/>
    <stop offset="1" stop-color="#979797"/>
  </linearGradient>
  <path fill="url(#t)" d="M827-60.3h-.5l-.2.3-.8 1.4-8.9 16.1-.8 1.4-8.3 14.9-.8 1.4-7.8 13.9-.8 1.5-7.2 12.9-.8 1.5-6.8 12.1-.2.3 2-.2.6-1.1L792.4 4l.8-1.5 7.3-12.9.8-1.5 7.7-13.8.8-1.5 8.3-14.9.8-1.4 9-16.1.4-.7Z"/>
  <linearGradient id="u" x1="409.781" x2="255.532" y1="169.131" y2="-317.701" gradientUnits="userSpaceOnUse">
    <stop offset="0" stop-color="#fff"/>
    <stop offset="1" stop-color="#979797"/>
  </linearGradient>
  <path fill="url(#u)" d="m-16.9 345-.4-.9L834-14.7l.4 1Z"/>
  <linearGradient id="v" x1="408.893" x2="254.644" y1="169.413" y2="-317.42" gradientUnits="userSpaceOnUse">
    <stop offset="0" stop-color="#fff"/>
    <stop offset="1" stop-color="#979797"/>
  </linearGradient>
  <path fill="url(#v)" d="m-34.2 341.3-.4-.9 878-370 .4.9Z"/>
  <linearGradient id="w" x1="407.947" x2="253.698" y1="169.713" y2="-317.12" gradientUnits="userSpaceOnUse">
    <stop offset="0" stop-color="#fff"/>
    <stop offset="1" stop-color="#979797"/>
  </linearGradient>
  <path fill="url(#w)" d="m-52.5 337.3-.4-.9L853.3-45.5l.4.9Z"/>
  <linearGradient id="x" x1="411.658" x2="257.409" y1="168.537" y2="-318.296" gradientUnits="userSpaceOnUse">
    <stop offset="0" stop-color="#fff"/>
    <stop offset="1" stop-color="#979797"/>
  </linearGradient>
  <path fill="url(#x)" d="M-60 327.9v-1l32.5-13.8 2.4-.9 44.6-18.8 2.3-1 44.6-18.8 2.2-.9 44.7-18.9 2.2-.9 44.7-18.9 2.2-.8 44.7-18.9 2.1-.9 44.8-18.9 2.1-.8 44.8-19 2.1-.8 44.8-18.9 2.1-.9 44.8-18.9 2.1-.8 44.8-18.9 2-.9 44.9-18.9 2-.8L535.4 76l2-.9 44.8-18.9 2.1-.9 44.8-18.8 2.1-.9L676 16.7l2.2-.9L722.8-3l2.3-1 44.6-18.8 2.3-1 44.6-18.7 2.3-1 39.8-16.8h2.6l-43.2 18.2-2.3 1-44.5 18.7-2.3 1-44.5 18.7-2.2 1-44.5 18.8-2.2.9L631 36.8l-2.2.9-44.6 18.8-2.1.9-44.7 18.8-2 .9-44.7 18.8-2.1.9-44.7 18.8-2 .9-44.8 18.8-2 .9-44.7 18.8-2 .9-44.8 18.8-2 .9-44.7 18.8-2.1.9-44.7 18.8-2 .9-44.7 18.8-2.1.9-44.6 18.8-2.2.9-44.6 18.8-2.2.9-44.5 18.8-2.3 1-44.4 18.7-2.4 1Z"/>
  <linearGradient id="y" x1="399.173" x2="244.924" y1="172.493" y2="-314.34" gradientUnits="userSpaceOnUse">
    <stop offset="0" stop-color="#fff"/>
    <stop offset="1" stop-color="#979797"/>
  </linearGradient>
  <path fill="url(#y)" d="m827-60.3-.7.3-46.2 19.5-2.3.9-46.2 19.5-2.2 1L683.1.4l-2.2.9-46.4 19.5-2.1.9L586 41.3l-2.1.8-46.4 19.6-2.1.9L489 82.1l-2.1.9-46.4 19.6-2.1.9L392 123l-2.1.9-46.4 19.6-2.1.8-46.4 19.6-2.1.9-46.4 19.5-2.1.9-46.4 19.6-2.1.9-46.4 19.5-2.1.9-46.4 19.5-2.2 1-46.3 19.5-2.2.9-46.2 19.5-2.3 1-46.2 19.4-2.4 1-13.2 5.6v1.1l14.8-6.3 2.4-1 46-19.4 2.3-.9 46.1-19.4 2.3-1 46.1-19.4 2.2-1 46.2-19.4 2.2-.9 46.2-19.5 2.1-.9 46.3-19.5 2.1-.9 46.3-19.5 2-.9 46.4-19.5 2-.9 46.3-19.5 2.1-.8 46.3-19.6 2-.8 46.4-19.5 2-.9 46.3-19.5 2.1-.9 46.3-19.5 2.1-.9 46.2-19.5 2.2-.9 46.2-19.5 2.2-.9 46.1-19.4 2.3-1 46.1-19.4 2.3-1 46-19.4 2.4-1 1.7-.7h-1.3Z"/>
  <linearGradient id="z" x1="385.804" x2="231.555" y1="176.728" y2="-310.104" gradientUnits="userSpaceOnUse">
    <stop offset="0" stop-color="#fff"/>
    <stop offset="1" stop-color="#979797"/>
  </linearGradient>
  <path fill="url(#z)" d="M-60 300.3v-1.1l42.8-18.1 2.3-.9 48-20.2 2.2-1 48-20.2 2.2-.9 48.1-20.3 2.1-.9 48.2-20.3 2-.9 48.2-20.3 2.1-.8 48.1-20.3 2.1-.9 48.2-20.3 2-.9 48.2-20.3 2-.8L435 90.6l2.1-.9 48.2-20.3 2-.9 48.2-20.3 2.1-.8 48.1-20.3 2.1-.9 48.1-20.3 2.2-.9 48-20.3 2.2-.9 48-20.2 2.3-.9 47.9-20.3 2.3-.9 4.3-1.8h2.6l-7.5 3.2-2.3.9L738-36l-2.2.9-47.9 20.2-2.2.9-47.9 20.2-2.1.9-48 20.2-2.1.9-48 20.3-2.1.8-48.1 20.3-2 .8-48.1 20.3-2 .9-48.1 20.2-2 .9-48.1 20.2-2 .9L287 154l-2 .9-48.1 20.2-2 .9-48 20.2-2.1.9-48 20.3-2.1.8-48 20.3-2.2.9-47.9 20.1-2.2 1-47.8 20.2-2.3.9Z"/>
  <linearGradient id="A" x1="371.433" x2="217.184" y1="181.282" y2="-305.551" gradientUnits="userSpaceOnUse">
    <stop offset="0" stop-color="#fff"/>
    <stop offset="1" stop-color="#979797"/>
  </linearGradient>
  <path fill="url(#A)" d="M-60 284.9v-1.1l22.4-9.5 2.3-.9 49.9-21 2.2-1 49.9-21 2.2-.9 49.9-21 2.1-.9 50-21.1 2.1-.9 50-21.1 2.1-.8 50-21.1 2.1-.9 50-21.1 2-.8 50.1-21.1 2-.9 50.1-21.1 2-.8 50.1-21.1 2-.9 50.1-21.1 2-.9 50-21 2.1-.9 50-21.1 2.1-.9 50-21 2.2-.9 49.8-21 2.3-1 10.5-4.4h2.6l-13.6 5.7-2.3 1-49.7 20.9-2.2 1-49.8 20.9-2.2 1-49.8 21-2.1.8-49.9 21.1-2 .8-49.9 21-2.1.9-49.9 21.1-2 .8-50 21-2 .9-49.9 21-2.1.9-49.9 21-2 .9-49.9 21-2.1.9-49.9 21-2.1.9-49.8 21-2.1.9-49.8 21-2.2.9-49.8 21-2.2.9-49.7 21-2.3.9Z"/>
  <linearGradient id="B" x1="355.964" x2="201.715" y1="186.183" y2="-300.65" gradientUnits="userSpaceOnUse">
    <stop offset="0" stop-color="#fff"/>
    <stop offset="1" stop-color="#979797"/>
  </linearGradient>
  <path fill="url(#B)" d="M-60 268.3v-1.1l.5-.2 2.3-.9 51.8-21.9 2.3-.9 51.9-21.9 2.1-.9 52-21.9 2.1-.9 52-21.9 2.1-.9 52-21.9 2.1-.9 52-21.9 2-.9 52.1-21.9 2-.8 52.1-22 2-.8 52.1-22 2-.8 52.1-22 2-.8 52-22 2.1-.8 52-21.9 2.1-.9 52-21.9 2.1-.9 52-21.9 2.1-.9 17.3-7.3h2.6l-20.3 8.5-2.1.9L645.7-29l-2.2.9-51.8 21.8-2.1.9-51.9 21.9-2.1.8-51.9 21.9-2 .9-51.9 21.8-2.1.9-51.9 21.9-2 .8-51.9 21.9-2.1.9-51.9 21.9-2 .8-52 21.9-2 .9-51.9 21.8-2.1.9-51.8 21.9-2.2.9-51.8 21.8-2.2.9-51.7 21.8-2.3 1-51.6 21.7-2.3 1Z"/>
  <linearGradient id="C" x1="339.257" x2="185.008" y1="191.476" y2="-295.356" gradientUnits="userSpaceOnUse">
    <stop offset="0" stop-color="#fff"/>
    <stop offset="1" stop-color="#979797"/>
  </linearGradient>
  <path fill="url(#C)" d="M-60 250.5v-1.1l33.1-14 2.3-.9 54-22.8 2.2-.9L85.7 188l2.1-.9 54.1-22.8 2.1-.9 54.2-22.8 2.1-.9 54.2-22.9 2-.8 54.2-22.9 2.1-.8L367 69.4l2-.8 54.2-22.9 2.1-.8L479.5 22l2-.8 54.2-22.9 2.1-.8L592-25.4l2.1-.9 54.1-22.8 2.1-.9 24.5-10.3h2.6l-27.3 11.5-2.2.9-54 22.8-2.1.9-54 22.8-2.1.8-54 22.8-2.1.9-54.1 22.8-2 .8-54.1 22.8-2 .9-54.1 22.8-2.1.8-54 22.8-2.1.9-54 22.7-2.1.9-54 22.8-2.1.9-54 22.7-2.2.9-53.9 22.8-2.2.9-53.9 22.7-2.3.9Z"/>
  <linearGradient id="D" x1="321.15" x2="166.901" y1="197.213" y2="-289.619" gradientUnits="userSpaceOnUse">
    <stop offset="0" stop-color="#fff"/>
    <stop offset="1" stop-color="#979797"/>
  </linearGradient>
  <path fill="url(#D)" d="M-60 231.1V230l9.8-4.1 2.2-1 56.4-23.7 2.2-1L67 176.5l2.2-.9 56.4-23.9 2.1-.8 56.5-23.8 2.1-.9 56.6-23.8 2-.9 56.5-23.8 2.1-.9L360.1 53l2-.9 56.5-23.8 2.1-.9 56.5-23.8 2.1-.9 56.5-23.8 2.1-.9 56.5-23.8 2.1-.9 32.3-13.6h2.6l-35.1 14.8-2 .9-56.4 23.7-2.1.9-56.4 23.8-2 .8-56.5 23.8-2 .9L362.5 53l-2.1.9L304 77.7l-2 .8-56.4 23.8-2.1.9-56.4 23.7-2.1.9-56.3 23.8-2.1.9-56.4 23.7-2.1.9-56.3 23.7-2.2.9-56.2 23.8-2.3.9Z"/>
  <linearGradient id="E" x1="301.474" x2="147.224" y1="203.448" y2="-283.385" gradientUnits="userSpaceOnUse">
    <stop offset="0" stop-color="#fff"/>
    <stop offset="1" stop-color="#979797"/>
  </linearGradient>
  <path fill="url(#E)" d="M-60 210v-1.1l45.6-19.2 2.2-.9 59-24.9 2.1-.9 59-24.8 2.1-.9 59.1-24.9 2.1-.9 59-24.9 2.1-.9 59.1-24.8 2-.9 59.1-24.9 2-.9 59.1-24.9 2.1-.8 59.1-24.9 2-.9 59.1-24.9 2.1-.9 40.9-17.2h2.6L538-42l-2.1.9L477-16.3l-2.1.9-59 24.9-2 .8-59 24.9-2 .8-59 24.9-2 .8-59 24.9-2 .8-59 24.9-2 .8-59 24.9-2 .9L50 163.7l-2.2.9-58.8 24.8-2.2.9Z"/>
  <linearGradient id="F" x1="280.012" x2="125.763" y1="210.248" y2="-276.585" gradientUnits="userSpaceOnUse">
    <stop offset="0" stop-color="#fff"/>
    <stop offset="1" stop-color="#979797"/>
  </linearGradient>
  <path fill="url(#F)" d="M-60 187v-1.1l20.7-8.7 2.2-.9 61.8-26 2.1-.9 61.8-26.1 2.1-.9 61.8-26 2.1-.9 61.9-26 2-.9 61.9-26.1 2-.8 61.9-26.1 2-.9 61.9-26 2-.9 61.9-26.1 2.1-.8 50.2-21.2h2.6l-52.7 22.2-2.1.9-61.7 26-2 .8-61.8 26.1-2 .8-61.8 26-2 .9-61.7 26-2.1.9-61.7 26-2.1.9-61.7 26-2.1.8-61.6 26-2.2.9-61.6 26-2.2.9Z"/>
  <linearGradient id="G" x1="256.503" x2="102.254" y1="217.696" y2="-269.136" gradientUnits="userSpaceOnUse">
    <stop offset="0" stop-color="#fff"/>
    <stop offset="1" stop-color="#979797"/>
  </linearGradient>
  <path fill="url(#G)" d="M-60 161.9v-1.1L.5 135.3l2.1-.9 64.8-27.3 2.1-.9 64.9-27.3 2.1-.9 64.9-27.4 2-.8 64.9-27.4 2.1-.8 64.9-27.4 2-.8L402.2-34l2.1-.9 60.4-25.4h2.5l-62.7 26.4-2 .9-64.8 27.3-2 .8-64.8 27.3-2 .9-64.8 27.3-2.1.9-64.7 27.2-2.1.9-64.7 27.3-2.1.9-64.7 27.3-2.2.8Z"/>
  <linearGradient id="H" x1="230.644" x2="76.395" y1="225.89" y2="-260.943" gradientUnits="userSpaceOnUse">
    <stop offset="0" stop-color="#fff"/>
    <stop offset="1" stop-color="#979797"/>
  </linearGradient>
  <path fill="url(#H)" d="M-60 134.2v-1.1l33.9-14.3 2.1-.9 68.2-28.7 2.1-.9 68.2-28.7 2-.9 68.3-28.8 2-.8L255.1.3l2-.8 68.3-28.8 2-.8 68.3-28.8 2-.9 1.3-.5h2.6l-3.6 1.5-2.1.9-68.1 28.7-2 .8L257.6.4l-2 .8-68.1 28.7-2.1.9-68.1 28.7-2 .9L47.2 89l-2.1.9-68.1 28.7-2.1.9Z"/>
  <linearGradient id="I" x1="202.072" x2="47.823" y1="234.942" y2="-251.89" gradientUnits="userSpaceOnUse">
    <stop offset="0" stop-color="#fff"/>
    <stop offset="1" stop-color="#979797"/>
  </linearGradient>
  <path fill="url(#I)" d="M-60 103.6v-1.1l4.4-1.8 2.2-.9 71.8-30.3 2.1-.9 71.9-30.3 2.1-.9 71.9-30.3 2.1-.9 71.9-30.3 2.1-.8 71.9-30.4 2.1-.8 9.9-4.2h2.6l-12.1 5.1-2.1.9L243-24.1l-2 .9-71.8 30.3-2.1.8-71.8 30.3-2.1.9-71.7 30.2-2.1.9-71.8 30.2-2.1.9Z"/>
  <linearGradient id="J" x1="170.315" x2="16.066" y1="245.005" y2="-241.828" gradientUnits="userSpaceOnUse">
    <stop offset="0" stop-color="#fff"/>
    <stop offset="1" stop-color="#979797"/>
  </linearGradient>
  <path fill="url(#J)" d="M-60 69.6v-1.1l49.9-21 2-.9 76.1-32 2-.9 76.1-32 2-.9 76.1-32 2-.9 19.5-8.2h2.6l-21.6 9.1-2 .9-75.9 32-2.1.8-75.9 32-2 .9-75.9 32-2.1.8Z"/>
  <linearGradient id="K" x1="134.829" x2="-19.42" y1="256.248" y2="-230.585" gradientUnits="userSpaceOnUse">
    <stop offset="0" stop-color="#fff"/>
    <stop offset="1" stop-color="#979797"/>
  </linearGradient>
  <path fill="url(#K)" d="M-60 31.7v-1.1l17.9-7.6 2.1-.9 80.6-33.9 2.1-.9 80.6-34 2.1-.8 30.2-12.8h2.6L126-46.7l-2 .8-80.5 34-2.1.8-80.5 33.9-2.1.9Z"/>
</svg>
