<svg xmlns="http://www.w3.org/2000/svg" width="926" height="411">
  <linearGradient id="a" x1="512.026" x2="666.275" y1="244.162" y2="730.995" gradientUnits="userSpaceOnUse">
    <stop offset="0" stop-color="#fff"/>
    <stop offset="1" stop-color="#979797"/>
  </linearGradient>
  <path fill="url(#a)" d="M981.8 473h1.9v-.8l-1.9.8ZM925.4 64l-.4-.1L97.6 412.6 59.8 473h1.8l9.4-15 .9-1.5 9-14.4.9-1.5 8.4-13.5.9-1.5L99 413l39-16.4 2.3-1 39.1-16.5 2.3-1 39.1-16.5 2.2-1 39.2-16.5 2.2-.9 39.2-16.5 2.1-.9 39.3-16.5 2.1-.9 39.3-16.6 2.1-.9 39.3-16.6 2-.9 39.3-16.6 2-.9 39.3-16.6 2-.8 39.3-16.6 2-.9 39.4-16.6 2-.9 39.3-16.6 2.1-.9 39.3-16.6 2.1-.9 39.3-16.5 2.1-.9 39.2-16.5 2.2-.9 39.2-16.5 2.2-1 39.1-16.5 2.3-1 39.4-16 2.4-1 39-16.4 14.5 3.2 1.7.4 15.5 3.4 1.7.4 16.6 3.6 1.7.4 7.6 1.7v-1.6L925.4 64Z"/>
  <linearGradient id="b" x1="937.523" x2="1091.772" y1="109.347" y2="596.18" gradientUnits="userSpaceOnUse">
    <stop offset="0" stop-color="#fff"/>
    <stop offset="1" stop-color="#979797"/>
  </linearGradient>
  <path fill="url(#b)" d="m970.5 104.8 13.2 3.5v1.7l-15.6-4.2-1.6-.5-17.7-4.8-1.6-.4-16.4-4.4-1.6-.5-15.4-4.1-1.6-.5-14.3-3.8-1.6-.5-13.4-3.6-.4-.1 1.6-1.2 1.2.3 13.4 3.6 1.6.5 14.3 3.8 1.6.5 15.3 4.1 1.6.5 16.5 4.4 1.6.4 17.7 4.8Z"/>
  <linearGradient id="c" x1="910.832" x2="1065.081" y1="117.804" y2="604.637" gradientUnits="userSpaceOnUse">
    <stop offset="0" stop-color="#fff"/>
    <stop offset="1" stop-color="#979797"/>
  </linearGradient>
  <path fill="url(#c)" d="m983.2 145.7.5.1v1.8l-2.8-1-1.4-.5-20.5-6.8-1.5-.5-18.9-6.3-1.4-.5-17.5-5.8-1.5-.5-16.2-5.4-1.5-.5-15.1-5-1.4-.5-14.1-4.7-1.5-.5-13.1-4.4-1.4-.5-12.3-4.1-.4-.1 1.6-1.2 1.1.4 12.2 4.1 1.5.5 13.1 4.3 1.5.5 14.1 4.7 1.4.5 15.1 5 1.5.5 16.2 5.4 1.4.5 17.6 5.9 1.4.4 18.9 6.4 1.5.4 20.4 6.9Z"/>
  <linearGradient id="d" x1="883.063" x2="1037.312" y1="126.603" y2="613.435" gradientUnits="userSpaceOnUse">
    <stop offset="0" stop-color="#fff"/>
    <stop offset="1" stop-color="#979797"/>
  </linearGradient>
  <path fill="url(#d)" d="m973.9 186.8 9.8 4v1.9l-12-4.9-1.3-.6-22-9-1.4-.5-20.2-8.3-1.3-.5-18.6-7.6-1.3-.6-17.2-7-1.3-.6-15.9-6.5-1.3-.5-14.8-6.1-1.3-.5-13.7-5.6-1.4-.6-12.7-5.2-1.4-.5-11.9-4.9-1.3-.6-11.2-4.5-.4-.2 1.7-1.2 1 .4 11.1 4.6 1.3.5 12 4.9 1.3.6 12.8 5.2 1.3.5 13.7 5.6 1.3.6 14.8 6 1.3.6 15.9 6.5 1.3.5 17.2 7.1 1.4.5 18.6 7.6 1.3.6 20.2 8.2 1.3.6 22 9Z"/>
  <linearGradient id="e" x1="853.843" x2="1008.092" y1="135.86" y2="622.693" gradientUnits="userSpaceOnUse">
    <stop offset="0" stop-color="#fff"/>
    <stop offset="1" stop-color="#979797"/>
  </linearGradient>
  <path fill="url(#e)" d="m963 235.5 20.7 10.4v2l-22.9-11.5-1.2-.6-23.7-11.9-1.2-.6-21.6-10.8-1.2-.6-19.8-10-1.2-.6-18.1-9.1-1.2-.6-16.8-8.4-1.1-.6-15.5-7.8-1.2-.6-14.3-7.2-1.2-.5-13.3-6.7-1.2-.6-12.3-6.2-1.2-.6-11.5-5.8-1.2-.6-10.7-5.4-1.2-.6-10-5-.4-.2 1.7-1.1.9.4 10 5 1.2.6 10.7 5.4 1.2.6 11.5 5.8 1.2.6 12.3 6.2 1.2.6 13.3 6.6 1.2.6 14.3 7.2 1.2.6 15.4 7.8 1.2.6 16.8 8.4 1.2.6 18.1 9.1 1.2.6 19.8 9.9 1.2.6 21.6 10.9 1.2.6 23.7 11.9Z"/>
  <linearGradient id="f" x1="822.636" x2="976.885" y1="145.748" y2="632.581" gradientUnits="userSpaceOnUse">
    <stop offset="0" stop-color="#fff"/>
    <stop offset="1" stop-color="#979797"/>
  </linearGradient>
  <path fill="url(#f)" d="m979.3 312 4.4 2.8v2.2l-6.6-4.1-1-.6-28.4-17.6-1-.6-25.6-15.8-1-.7-23.2-14.3-1-.6-21.1-13-1-.7-19.3-11.9-1-.6-17.6-10.9-1-.6-16.2-10-1-.7-14.9-9.2-1.1-.6L788 196l-1.1-.7-12.7-7.8-1-.7-11.8-7.3-1.1-.6-11-6.8-1-.7-10.2-6.3-1.1-.6-9.5-5.9-1.1-.7-8.9-5.5-.4-.2 1.9-1.1.6.4 9 5.5 1 .7 9.5 5.9 1.1.6 10.2 6.3 1.1.7 10.9 6.8 1.1.6 11.8 7.3 1.1.7 12.7 7.8 1 .7 13.8 8.5 1 .6 14.9 9.2 1 .7 16.2 10 1 .6 17.6 10.9 1.1.6 19.2 11.9 1 .7 21.1 13 1 .6 23.2 14.3 1 .7 25.6 15.8 1.1.6 28.3 17.6Z"/>
  <linearGradient id="g" x1="788.585" x2="942.834" y1="156.537" y2="643.37" gradientUnits="userSpaceOnUse">
    <stop offset="0" stop-color="#fff"/>
    <stop offset="1" stop-color="#979797"/>
  </linearGradient>
  <path fill="url(#g)" d="m965.8 389.7 17.9 13.7v2.5l-20-15.3-.9-.7-31-23.9-1-.7-27.6-21.2-.9-.7-24.8-19-1-.8-22.3-17.1-.9-.7-20.3-15.6-.9-.7-18.4-14.1-.9-.7-16.8-12.9-.9-.7-15.4-11.8-.9-.7-14.2-10.8-.9-.7-13-10-.9-.7-12-9.3-.9-.7-11.2-8.5-.9-.7-10.3-7.9-.9-.7-9.6-7.4-.9-.7-9-6.9-.9-.7-8.3-6.4-1-.7-7.8-6-.3-.2 1.9-1.1.5.5 7.8 5.9 1 .8 8.3 6.4.9.7 9 6.8.9.7 9.6 7.4.9.7 10.3 7.9.9.7 11.1 8.6 1 .7 12 9.2.9.7 13 10 .9.7 14.1 10.8 1 .7 15.4 11.8.9.7 16.8 12.9.9.7 18.4 14.2.9.7 20.3 15.5.9.7 22.3 17.2 1 .7 24.8 19 .9.7 27.6 21.2 1 .8 31 23.8Z"/>
  <linearGradient id="h" x1="734.34" x2="888.589" y1="173.724" y2="660.557" gradientUnits="userSpaceOnUse">
    <stop offset="0" stop-color="#fff"/>
    <stop offset="1" stop-color="#979797"/>
  </linearGradient>
  <path fill="url(#h)" d="m913.9 454.3 19.3 18.7h-2.9l-18.5-17.8-.8-.8-30-29-.7-.8-26.6-25.7-.8-.7-23.7-22.9-.8-.8-21.2-20.5-.8-.8-19.2-18.5-.8-.8-17.3-16.7-.8-.8-15.7-15.2-.8-.8-14.4-13.9-.8-.8-13.2-12.7-.8-.8-12-11.6-.8-.8-11.2-10.8-.8-.7-10.2-10-.8-.8-9.6-9.2-.7-.7-8.9-8.6-.8-.7-8.2-8-.8-.7-7.6-7.4-.8-.8-7.2-6.9-.7-.8-6.7-6.4-.3-.3 1.9-1 .4.4 6.7 6.5.8.7 7.2 6.9.7.8 7.7 7.4.8.8 8.2 7.9.8.8 8.8 8.5.8.8 9.5 9.2.8.7 10.3 10 .8.8 11.1 10.7.8.8 12.1 11.7.8.7 13.2 12.8.8.7 14.3 13.9.8.8 15.8 15.2.8.8 17.3 16.8.8.7 19.2 18.5.7.8 21.3 20.5.8.8 23.7 22.9.8.8 26.5 25.7.8.7 30 29Z"/>
  <linearGradient id="i" x1="657.663" x2="811.913" y1="198.018" y2="684.851" gradientUnits="userSpaceOnUse">
    <stop offset="0" stop-color="#fff"/>
    <stop offset=".931" stop-color="#9e9e9e"/>
    <stop offset="1" stop-color="#979797"/>
  </linearGradient>
  <path fill="url(#i)" d="m800.4 459.4 10.9 13.6h-2.7l-10.2-12.8-.7-.8-22.1-27.6-.7-.8-19.7-24.6-.6-.8-17.7-22-.7-.8-15.9-19.9-.7-.8-14.4-18-.6-.8-13.2-16.4-.6-.8-12-14.9-.6-.8-11-13.7-.7-.8-10-12.6-.7-.8-9.2-11.5-.7-.8-8.6-10.7-.6-.8-7.9-9.9-.7-.8-7.4-9.2-.6-.8-6.8-8.6-.7-.8-6.4-7.9-.6-.8-6-7.4-.6-.9-5.6-6.9-.3-.3 2-1 .4.5 5.5 6.9.7.8 5.9 7.4.7.8 6.3 8 .7.8 6.8 8.5.7.8 7.3 9.2.7.8 7.9 9.9.7.8 8.5 10.7.7.8 9.3 11.6.6.8 10.1 12.5.6.8 11 13.7.7.8 11.9 15 .7.8 13.1 16.3.7.8 14.4 18 .6.8 16 19.9.6.8 17.7 22.1.7.8 19.7 24.6.6.8 22.2 27.6Z"/>
  <linearGradient id="j" x1="588.056" x2="742.306" y1="220.073" y2="706.906" gradientUnits="userSpaceOnUse">
    <stop offset="0" stop-color="#fff"/>
    <stop offset="1" stop-color="#979797"/>
  </linearGradient>
  <path fill="url(#j)" d="m699.5 463.9 5.5 9.1h-2.6l-4.9-8.2-.5-.9-15.8-26.3-.5-.8-14.1-23.6-.5-.9-12.8-21.2-.5-.9-11.5-19.2-.5-.8-10.5-17.5-.5-.9-9.6-15.9-.5-.9-8.8-14.6-.5-.9-8-13.4-.5-.8-7.4-12.4-.6-.9-6.8-11.4-.5-.8-6.4-10.6-.5-.9-5.8-9.7-.6-.9-5.4-9.1-.6-.9-5-8.5-.6-.9-4.7-7.9-.5-.8-4.5-7.4-.2-.5 2-.9.3.5 4.4 7.4.5.9 4.8 7.9.5.9 5.1 8.4.5.9 5.5 9.1.5.9 5.9 9.8.5.9 6.3 10.5.5.9 6.9 11.4.5.9 7.4 12.3.5.9 8.1 13.4.5.9 8.7 14.5.6.9 9.5 16 .5.8 10.5 17.5.5.9 11.6 19.2.5.9 12.7 21.2.5.9 14.1 23.5.6.9L699 463Z"/>
  <linearGradient id="k" x1="524.249" x2="678.498" y1="240.29" y2="727.123" gradientUnits="userSpaceOnUse">
    <stop offset="0" stop-color="#fff"/>
    <stop offset="1" stop-color="#979797"/>
  </linearGradient>
  <path fill="url(#k)" d="m609.3 467.9 2.1 5.1H609l-1.8-4.2-.3-.9-10.6-25.1-.4-.9-9.5-22.6-.4-.9-8.6-20.4-.4-1-7.8-18.5-.4-1-7.2-16.9-.4-1-6.5-15.5-.4-.9-6-14.3-.4-.9-5.5-13.1-.4-1-5.1-12.1-.4-.9-4.8-11.2-.3-1-4.4-10.4-.4-.9-4.1-9.7-.4-.9-3.8-9.1-.4-.9-3.5-8.4-.4-.9-3.3-7.9-.2-.5 2-.8.2.4 3.3 7.9.4.9 3.5 8.5.4.9 3.8 9 .4.9 4.1 9.7.4 1 4.4 10.4.4.9 4.7 11.2.4 1 5.1 12.1.4.9 5.5 13.1.4 1 6 14.2.4 1 6.6 15.5.4.9 7.1 17 .4.9 7.8 18.6.4.9 8.6 20.4.4 1 9.5 22.5.4 1 10.6 25Z"/>
  <linearGradient id="l" x1="465.282" x2="619.531" y1="258.973" y2="745.806" gradientUnits="userSpaceOnUse">
    <stop offset="0" stop-color="#fff"/>
    <stop offset="1" stop-color="#979797"/>
  </linearGradient>
  <path fill="url(#l)" d="m528 471.6.4 1.4h-2.3l-.1-.5-.3-1-6.3-24-.2-.9-5.7-21.7-.3-1-5.2-19.7-.2-1-4.8-17.9-.2-1-4.4-16.5-.2-1-4-15.1-.2-1-3.7-13.9-.3-1-3.4-12.8-.2-1-3.2-11.9-.2-1-2.9-11-.3-1-2.7-10.3-.2-1-2.6-9.5-.2-1-2.4-8.9-.2-1-2.2-8.4-.2-.5 2.1-.8.1.5 2.2 8.3.3 1 2.3 8.9.3 1 2.5 9.6.3 1 2.7 10.2.2 1 2.9 11 .3 1 3.1 11.9.3 1 3.4 12.9.2 1 3.7 13.9.2 1 4 15.1.3 1 4.3 16.4.3 1 4.7 18 .3 1 5.2 19.7.2.9 5.7 21.7.3 1 6.3 23.9Z"/>
  <linearGradient id="m" x1="410.374" x2="564.623" y1="276.37" y2="763.203" gradientUnits="userSpaceOnUse">
    <stop offset="0" stop-color="#fff"/>
    <stop offset="1" stop-color="#979797"/>
  </linearGradient>
  <path fill="url(#m)" d="M454.3 473h-2.2l-2.5-21.2-.2-1-2.5-20.8-.1-1.1-2.4-18.9-.1-1.1-2.1-17.4-.1-1-2-16-.1-1-1.8-14.7-.1-1.1-1.7-13.6-.1-1-1.6-12.6-.1-1-1.4-11.7-.1-1-1.4-10.9-.1-1-1.2-10.1-.2-1-1.1-9.5-.1-1-1.1-8.8-.1-.6 2.1-.7v.4l1.1 8.8.1 1.1 1.2 9.4.1 1 1.2 10.1.2 1.1 1.3 10.8.1 1.1 1.5 11.6.1 1.1 1.5 12.5.1 1.1 1.7 13.6.1 1 1.8 14.7.2 1.1 1.9 15.9.1 1.1 2.2 17.4.1 1 2.3 19 .1 1 2.6 20.8.1 1.1Z"/>
  <linearGradient id="n" x1="358.885" x2="513.135" y1="292.684" y2="779.517" gradientUnits="userSpaceOnUse">
    <stop offset="0" stop-color="#fff"/>
    <stop offset="1" stop-color="#979797"/>
  </linearGradient>
  <path fill="url(#n)" d="M388.6 290.6v.4l-.1 9.3v12.2l-.1 10.6v13.6l-.1 12.3v1.1l-.1 13.3v16.5l-.1 15.5v1l-.1 16.9v1.1l-.1 18.3v1.1l-.1 20v1.1l-.1 18.1h-2v-18.3l.1-20v-1.1l.1-18.4v-1.1l.1-16.8v-1.1l.1-15.5v-1.1l.1-14.3v-15.4l.1-12.3V324l.1-10.7v-12.1l.1-9.3v-.6Z"/>
  <linearGradient id="o" x1="310.312" x2="464.561" y1="308.074" y2="794.907" gradientUnits="userSpaceOnUse">
    <stop offset="0" stop-color="#fff"/>
    <stop offset="1" stop-color="#979797"/>
  </linearGradient>
  <path fill="url(#o)" d="M347.2 308v.5l-1.2 9.7-.1 1.2-1.2 10.4-.2 1.2-1.3 11.2-.2 1.1-1.4 12-.1 1.2-1.6 12.9-.1 1.1-1.7 14-.1 1.1-1.8 15.1-.1 1.1-2 16.3-.1 1.1-2.1 17.7-.1 1.2-2.3 19.2-.2 1.2-1.7 14.5h-2l1.6-13.7.2-1.1 2.3-19.3.1-1.1 2.1-17.7.1-1.1 2-16.3.1-1.2 1.8-15 .1-1.2 1.7-13.9.1-1.1 1.6-12.9.1-1.2 1.4-12 .2-1.2 1.3-11.1.2-1.2 1.2-10.4.1-1.2 1.2-9.7.1-.8Z"/>
  <linearGradient id="p" x1="264.253" x2="418.502" y1="322.667" y2="809.5" gradientUnits="userSpaceOnUse">
    <stop offset="0" stop-color="#fff"/>
    <stop offset="1" stop-color="#979797"/>
  </linearGradient>
  <path fill="url(#p)" d="m305.9 325.5-.1.4-2.2 10.2-.3 1.2-2.5 11-.2 1.2-2.6 11.7-.3 1.2-2.8 12.6-.3 1.2-3 13.6-.3 1.2-3.2 14.6-.3 1.2-3.5 15.7-.3 1.2-3.8 17.1-.3 1.2-4.1 18.5-.3 1.3L273 473h-1.9l2.3-10.3.3-1.3 4.1-18.5.3-1.2 3.8-17.1.2-1.2 3.6-15.7.2-1.2 3.3-14.6.3-1.2 3-13.6.2-1.2 2.9-12.6.2-1.2 2.6-11.7.3-1.2 2.4-11 .3-1.2 2.3-10.2.2-.8Z"/>
  <linearGradient id="q" x1="220.37" x2="374.62" y1="336.571" y2="823.404" gradientUnits="userSpaceOnUse">
    <stop offset="0" stop-color="#fff"/>
    <stop offset="1" stop-color="#979797"/>
  </linearGradient>
  <path fill="url(#q)" d="m264.6 342.9-.1.4-3.4 10.7-.4 1.3-3.7 11.4-.4 1.3-3.9 12.3-.4 1.2-4.2 13.2-.4 1.3-4.5 14.1-.4 1.3-4.8 15.3-.4 1.2-5.3 16.5-.4 1.3-5.6 17.8-.4 1.3-2.6 8.2h-1.9l2.3-7.3.4-1.2 5.7-17.9.4-1.3 5.2-16.5.4-1.2 4.9-15.3.4-1.2 4.5-14.2.4-1.3 4.1-13.1.4-1.3 3.9-12.3.4-1.2 3.7-11.5.4-1.3 3.4-10.6.3-.9Z"/>
  <linearGradient id="r" x1="178.395" x2="332.644" y1="349.871" y2="836.704" gradientUnits="userSpaceOnUse">
    <stop offset="0" stop-color="#fff"/>
    <stop offset="1" stop-color="#979797"/>
  </linearGradient>
  <path fill="url(#r)" d="m223.3 360.4-.2.4-4.5 11.1-.5 1.3-4.9 12-.5 1.3-5.2 12.8-.5 1.4-5.6 13.7-.5 1.3-6 14.8-.5 1.3-6.5 16-.5 1.3-7 17.2-.5 1.3-2.2 5.4h-1.9l1.8-4.4.6-1.3 6.9-17.3.6-1.3 6.4-15.9.6-1.3 5.9-14.8.6-1.4 5.5-13.7.6-1.3 5.2-12.8.5-1.4 4.8-11.9.6-1.3 4.5-11.2.4-.9Z"/>
  <linearGradient id="s" x1="138.097" x2="292.347" y1="362.639" y2="849.471" gradientUnits="userSpaceOnUse">
    <stop offset="0" stop-color="#fff"/>
    <stop offset="1" stop-color="#979797"/>
  </linearGradient>
  <path fill="url(#s)" d="m181.9 377.8-.1.4-5.7 11.6-.6 1.4-6.1 12.5-.6 1.3-6.5 13.4-.7 1.4-6.9 14.3-.7 1.4-7.4 15.4-.7 1.4-8.1 16.6-.6 1.3-1.4 2.8H134l.9-1.8.6-1.4 8.1-16.6.7-1.3 7.4-15.5.7-1.3 6.9-14.4.7-1.3 6.5-13.4.6-1.4 6.1-12.4.6-1.4 5.7-11.6.5-1.1Z"/>
  <linearGradient id="t" x1="99.272" x2="253.521" y1="374.94" y2="861.773" gradientUnits="userSpaceOnUse">
    <stop offset="0" stop-color="#fff"/>
    <stop offset="1" stop-color="#979797"/>
  </linearGradient>
  <path fill="url(#t)" d="M96.7 473h.5l.2-.3.8-1.4 8.9-16.1.8-1.4 8.4-14.9.8-1.5 7.7-13.8.8-1.5 7.3-12.9.7-1.5 6.8-12.1.2-.3-1.9.2-.6 1.1-6.8 12.1-.8 1.4-7.2 13-.8 1.4-7.8 13.9-.8 1.5-8.3 14.9-.8 1.4-9 16-.4.8Z"/>
  <linearGradient id="u" x1="513.938" x2="668.187" y1="243.557" y2="730.39" gradientUnits="userSpaceOnUse">
    <stop offset="0" stop-color="#fff"/>
    <stop offset="1" stop-color="#979797"/>
  </linearGradient>
  <path fill="url(#u)" d="m940.7 67.7.4.9L89.7 427.3l-.4-.9Z"/>
  <linearGradient id="v" x1="514.826" x2="669.075" y1="243.275" y2="730.108" gradientUnits="userSpaceOnUse">
    <stop offset="0" stop-color="#fff"/>
    <stop offset="1" stop-color="#979797"/>
  </linearGradient>
  <path fill="url(#v)" d="m957.9 71.4.4.9-878 370-.3-.9Z"/>
  <linearGradient id="w" x1="515.771" x2="670.021" y1="242.976" y2="729.808" gradientUnits="userSpaceOnUse">
    <stop offset="0" stop-color="#fff"/>
    <stop offset="1" stop-color="#979797"/>
  </linearGradient>
  <path fill="url(#w)" d="m976.3 75.4.3.9L70.4 458.2l-.4-.9Z"/>
  <linearGradient id="x" x1="512.061" x2="666.31" y1="244.151" y2="730.984" gradientUnits="userSpaceOnUse">
    <stop offset="0" stop-color="#fff"/>
    <stop offset="1" stop-color="#979797"/>
  </linearGradient>
  <path fill="url(#x)" d="M983.7 84.7v1.1l-32.5 13.7-2.4 1-44.5 18.8-2.3 1-44.7 18.8-2.2.9-44.7 18.9-2.2.9-44.7 18.8-2.1.9-44.8 18.9-2.1.9-44.8 18.9-2.1.8-44.8 18.9-2.1.9-44.8 18.9-2 .9-44.9 18.9-2 .8-44.9 18.9-2 .9-44.9 18.9-2 .8-44.8 18.9-2.1.9-44.8 18.9-2.1.9-44.8 18.8-2.1.9-44.8 18.9-2.1.9-44.7 18.8-2.3 1-44.6 18.8-2.3.9-44.6 18.8-2.3 1L65 473h-2.6l43.2-18.2 2.3-1 44.5-18.7 2.3-1 44.5-18.8 2.2-.9 44.6-18.8 2.1-.9 44.6-18.8 2.2-.9 44.6-18.8 2.1-.9 44.7-18.8 2.1-.9 44.7-18.8 2-.9 44.7-18.8 2.1-.9 44.7-18.8 2-.9 44.7-18.8 2.1-.9 44.7-18.8 2-.9 44.7-18.8 2.1-.9 44.7-18.8 2.1-.9 44.6-18.8 2.1-.9 44.6-18.8 2.2-.9 44.6-18.8 2.2-1 44.5-18.7 2.3-1 44.4-18.7 2.4-1Z"/>
  <linearGradient id="y" x1="524.546" x2="678.795" y1="240.196" y2="727.028" gradientUnits="userSpaceOnUse">
    <stop offset="0" stop-color="#fff"/>
    <stop offset="1" stop-color="#979797"/>
  </linearGradient>
  <path fill="url(#y)" d="m96.7 473 .7-.3 46.2-19.5 2.3-.9 46.2-19.5 2.3-1 46.3-19.5 2.1-.9 46.4-19.5 2.1-.9 46.4-19.6 2.1-.9 46.4-19.5 2.1-.9 46.4-19.6 2.1-.8 46.4-19.6 2.1-.9 46.4-19.5 2.1-.9 46.4-19.6 2.1-.8 46.5-19.6 2-.9 46.4-19.6 2.1-.8 46.4-19.6 2.1-.9 46.4-19.5 2.2-.9 46.3-19.6 2.2-.9 46.3-19.5 2.2-.9 46.3-19.5 2.2-1 46.2-19.4 2.4-1 13.2-5.6v-1.1l-14.8 6.2-2.4 1-46 19.4-2.3 1-46.1 19.4-2.2 1-46.2 19.4-2.2 1-46.2 19.4-2.1.9-46.3 19.5-2.1.9-46.3 19.5-2 .9-46.4 19.5-2 .9-46.3 19.5-2.1.8-46.3 19.6-2 .8-46.4 19.5-2 .9-46.3 19.5-2.1.9-46.3 19.5-2.1.9-46.3 19.5-2.1.9-46.2 19.5-2.1.9-46.3 19.4-2.1 1-46.2 19.4-2.2 1-46.1 19.4-2.3 1-46.1 19.4-2.4.9-1.7.8h1.3Z"/>
  <linearGradient id="z" x1="537.915" x2="692.164" y1="235.96" y2="722.793" gradientUnits="userSpaceOnUse">
    <stop offset="0" stop-color="#fff"/>
    <stop offset="1" stop-color="#979797"/>
  </linearGradient>
  <path fill="url(#z)" d="M983.7 112.4v1.1l-42.8 18-2.3 1-48 20.2-2.2 1-48 20.2-2.2.9-48.1 20.3-2.1.9-48.1 20.3-2.1.8-48.2 20.3-2 .9-48.2 20.3-2.1.9-48.2 20.3-2 .8-48.2 20.4-2 .8-48.2 20.3-2.1.9-48.2 20.3-2 .8-48.2 20.3-2 .9-48.2 20.3-2.1.9-48.1 20.3-2.1.9-48.1 20.2-2.2.9-48 20.3-2.3.9-47.9 20.2-2.3 1-4.2 1.8h-2.6l7.4-3.2 2.3-.9 47.9-20.2 2.2-.9 47.9-20.2 2.2-.9 47.9-20.2 2.2-.9 47.9-20.3 2.1-.8 48.1-20.3 2-.8 48.1-20.3 2-.9 48.1-20.2 2-.9 48.1-20.2 2-.9 48.1-20.2 2-.9 48.1-20.2 2-.9 48.1-20.3 2-.8 48.1-20.3 2-.8 48-20.3 2.2-.9 47.9-20.2 2.2-.9 47.9-20.2 2.2-.9 47.9-20.2 2.3-.9Z"/>
  <linearGradient id="A" x1="552.286" x2="706.535" y1="231.406" y2="718.239" gradientUnits="userSpaceOnUse">
    <stop offset="0" stop-color="#fff"/>
    <stop offset="1" stop-color="#979797"/>
  </linearGradient>
  <path fill="url(#A)" d="M983.7 127.8v1.1l-22.4 9.4-2.3 1-49.8 21-2.3 1-49.9 21-2.2.9-49.9 21-2.1.9-50 21.1-2.1.9-50 21.1-2.1.8-50 21.1-2 .9-50.1 21.1-2 .8-50.1 21.1-2 .9-50.1 21.1-2 .8-50.1 21.1-2 .9-50 21.1-2.1.8-50 21.1-2.1.9-50 21-2.1.9-50 21.1-2.1.9-49.9 21-2.3 1-10.4 4.4h-2.6l13.6-5.7 2.2-1 49.8-21 2.1-.9 49.8-21 2.2-.9 49.8-21 2.1-.8 49.9-21.1 2.1-.8 49.9-21.1 2-.8 49.9-21.1 2.1-.8 49.9-21.1 2-.8 49.9-21.1 2.1-.8 49.9-21 2-.9 49.9-21 2.1-.9 49.9-21 2.1-.9 49.8-21 2.2-.9 49.8-21 2.1-.9 49.8-21 2.2-.9 49.7-21 2.3-.9Z"/>
  <linearGradient id="B" x1="567.755" x2="722.004" y1="226.505" y2="713.338" gradientUnits="userSpaceOnUse">
    <stop offset="0" stop-color="#fff"/>
    <stop offset="1" stop-color="#979797"/>
  </linearGradient>
  <path fill="url(#B)" d="M983.7 144.4v1l-.5.3-2.3.9-51.8 21.9-2.3.9-51.8 21.9-2.2.9-52 21.9-2.1.9-52 21.9-2.1.9-52 21.9-2 .9-52.1 21.9-2 .8-52.1 22-2 .8-52.1 22-2 .8-52.1 22-2 .8-52 22-2.1.8-52 21.9-2.1.9-52 21.9-2.1.9-52 21.9-2.1.9-51.9 21.9-2.2.9-17.2 7.3h-2.6l20.2-8.5 2.2-1 51.8-21.8 2.1-.9L332 419l2.1-.9 51.9-21.9 2.1-.8 51.9-21.9 2-.9 52-21.9 2-.8 51.9-21.9 2-.9 52-21.8 2-.9 51.9-21.9 2.1-.8 51.9-21.9 2-.9 51.9-21.8 2.1-.9 51.9-21.9 2.1-.9 51.8-21.8 2.2-.9 51.7-21.8 2.3-1 51.7-21.8 2.2-.9Z"/>
  <linearGradient id="C" x1="584.462" x2="738.711" y1="221.212" y2="708.045" gradientUnits="userSpaceOnUse">
    <stop offset="0" stop-color="#fff"/>
    <stop offset="1" stop-color="#979797"/>
  </linearGradient>
  <path fill="url(#C)" d="M983.7 162.2v1.1l-33.1 14-2.2.9-54.1 22.8-2.2.9-54.1 22.8-2.1.9-54.1 22.8-2.1.9-54.2 22.8-2.1.9-54.2 22.8-2 .9-54.2 22.9-2.1.8-54.2 22.9-2 .8-54.2 22.9-2.1.8-54.2 22.9-2 .8-54.2 22.9-2.1.8-54.1 22.9-2.1.8-54.2 22.9-2.1.9-24.5 10.3h-2.6l27.4-11.6 2.1-.9 54-22.7 2.1-.9 54-22.8 2.1-.8 54.1-22.8 2-.9 54.1-22.8 2-.8 54.1-22.8 2-.9 54.1-22.8 2.1-.8 54-22.8 2.1-.9 54-22.8 2.1-.8 54.1-22.8 2-.9 54.1-22.7 2.1-.9 53.9-22.8 2.2-.9 53.9-22.7 2.3-1Z"/>
  <linearGradient id="D" x1="602.568" x2="756.818" y1="215.475" y2="702.308" gradientUnits="userSpaceOnUse">
    <stop offset="0" stop-color="#fff"/>
    <stop offset="1" stop-color="#979797"/>
  </linearGradient>
  <path fill="url(#D)" d="M983.7 181.6v1.1l-9.8 4.1-2.2 1-56.4 23.7-2.2 1-56.4 23.7-2.2.9-56.4 23.8-2.1.9-56.5 23.8-2.1.9-56.5 23.8-2.1.9-56.5 23.8-2.1.9-56.5 23.8-2.1.9-56.5 23.8-2.1.9-56.5 23.8-2.1.9-56.5 23.8-2.1.9-56.5 23.8-2.1.8-32.3 13.7h-2.6l35.1-14.8 2.1-.9 56.3-23.7 2.1-.9 56.4-23.8 2.1-.8 56.4-23.8 2-.9 56.4-23.8 2.1-.8 56.4-23.8 2-.9 56.5-23.7 2-.9 56.4-23.8 2.1-.8 56.4-23.8 2.1-.9 56.3-23.7 2.1-.9 56.3-23.7 2.2-1 56.3-23.7 2.2-.9Z"/>
  <linearGradient id="E" x1="622.245" x2="776.494" y1="209.24" y2="696.073" gradientUnits="userSpaceOnUse">
    <stop offset="0" stop-color="#fff"/>
    <stop offset="1" stop-color="#979797"/>
  </linearGradient>
  <path fill="url(#E)" d="M983.7 202.7v1.1L938.1 223l-2.2.9-59 24.9-2.1.9-59 24.8-2.1.9-59.1 24.9-2 .9-59.1 24.9-2.1.8-59.1 24.9-2 .9-59.1 24.9-2 .9-59.1 24.9-2.1.8-59.1 24.9-2 .9-59.1 24.9-2.1.9-40.8 17.2h-2.6l43.4-18.3 2.1-.9 59-24.9 2-.8 59-24.9 2-.8 59-24.9 2-.8 59-24.9 2-.8 59-24.9 2-.8 59-24.9 2-.9 59-24.8 2.1-.9 58.9-24.8 2.1-.9 58.8-24.8 2.2-.9Z"/>
  <linearGradient id="F" x1="643.707" x2="797.956" y1="202.44" y2="689.273" gradientUnits="userSpaceOnUse">
    <stop offset="0" stop-color="#fff"/>
    <stop offset="1" stop-color="#979797"/>
  </linearGradient>
  <path fill="url(#F)" d="M983.7 225.6v1.1l-20.7 8.8-2.2.9-61.8 26-2.1.9-61.8 26.1-2.1.8-61.8 26.1-2.1.9-61.8 26-2.1.9-61.9 26.1-2 .8-61.9 26.1-2 .9-61.9 26-2 .9-61.9 26.1-2 .8-50.2 21.2h-2.6l52.6-22.2 2.1-.9 61.7-26 2.1-.8L577 397l2-.8 61.8-26 2-.9 61.8-26 2-.9 61.7-26 2.1-.9 61.7-26 2.1-.8 61.7-26 2.1-.9 61.6-26 2.2-.9Z"/>
  <linearGradient id="G" x1="667.216" x2="821.465" y1="194.992" y2="681.825" gradientUnits="userSpaceOnUse">
    <stop offset="0" stop-color="#fff"/>
    <stop offset="1" stop-color="#979797"/>
  </linearGradient>
  <path fill="url(#G)" d="M983.7 250.8v1.1l-60.5 25.5-2.1.9-64.8 27.3-2.1.9-64.9 27.3-2.1.9-64.9 27.3-2 .9-64.9 27.4-2.1.8-64.9 27.4-2 .8-64.9 27.4-2.1.8-60.3 25.5h-2.6l62.7-26.4 2-.9 64.8-27.3 2-.9 64.8-27.3 2.1-.8 64.7-27.3 2.1-.9 64.7-27.3 2.1-.8 64.8-27.3 2.1-.9 64.7-27.3 2.1-.9Z"/>
  <linearGradient id="H" x1="693.075" x2="847.324" y1="186.799" y2="673.631" gradientUnits="userSpaceOnUse">
    <stop offset="0" stop-color="#fff"/>
    <stop offset="1" stop-color="#979797"/>
  </linearGradient>
  <path fill="url(#H)" d="M983.7 278.5v1.1l-33.8 14.2-2.2.9-68.1 28.8-2.1.9-68.3 28.7-2 .9-68.3 28.7-2 .9-68.3 28.8-2 .8-68.3 28.8-2 .8-68.3 28.8-2 .9-1.2.5h-2.6l3.5-1.5 2.1-.9 68.1-28.7 2-.9 68.2-28.7 2-.8 68.1-28.7 2.1-.9 68.1-28.7 2.1-.9 68-28.7 2.1-.8 68.1-28.7 2.1-.9Z"/>
  <linearGradient id="I" x1="721.647" x2="875.896" y1="177.746" y2="664.578" gradientUnits="userSpaceOnUse">
    <stop offset="0" stop-color="#fff"/>
    <stop offset="1" stop-color="#979797"/>
  </linearGradient>
  <path fill="url(#I)" d="M983.7 309.1v1.1l-4.4 1.8-2.2.9-71.8 30.3-2.1.9-71.9 30.3-2.1.9-71.9 30.3-2.1.8-71.9 30.4-2.1.8-71.9 30.3-2.1.9-9.9 4.2h-2.6l12.2-5.1 2-.9 71.8-30.2 2-.9 71.9-30.3 2-.8 71.8-30.3 2.1-.9 71.8-30.2 2.1-.9 71.7-30.2 2.1-.9Z"/>
  <linearGradient id="J" x1="753.404" x2="907.653" y1="167.684" y2="654.516" gradientUnits="userSpaceOnUse">
    <stop offset="0" stop-color="#fff"/>
    <stop offset="1" stop-color="#979797"/>
  </linearGradient>
  <path fill="url(#J)" d="M983.7 343.1v1l-49.8 21.1-2.1.8-76 32.1-2.1.8-76.1 32.1-2 .8-76.1 32.1-2 .9L678 473h-2.6l21.6-9.1 2-.9 75.9-32 2.1-.8 75.9-32 2.1-.9 75.8-32 2.1-.9Z"/>
  <linearGradient id="K" x1="788.89" x2="943.139" y1="156.44" y2="643.273" gradientUnits="userSpaceOnUse">
    <stop offset="0" stop-color="#fff"/>
    <stop offset="1" stop-color="#979797"/>
  </linearGradient>
  <path fill="url(#K)" d="M983.7 381v1.1l-17.9 7.6-2.1.9-80.6 33.9-2.1.9-80.6 34-2 .8-30.3 12.8h-2.6l32.2-13.6 2.1-.8 80.5-34 2-.8 80.5-33.9 2.1-.9Z"/>
</svg>
